<svg xmlns="http://www.w3.org/2000/svg" width="36.577" height="36.577" viewBox="0 0 36.577 36.577">
  <path id="icons8-instagram" d="M13.665,3A10.681,10.681,0,0,0,3,13.671v15.24A10.681,10.681,0,0,0,13.671,39.577h15.24A10.681,10.681,0,0,0,39.577,28.906V13.665A10.681,10.681,0,0,0,28.906,3ZM31.957,9.1a1.524,1.524,0,1,1-1.524,1.524A1.525,1.525,0,0,1,31.957,9.1ZM21.288,12.144a9.144,9.144,0,1,1-9.144,9.144A9.153,9.153,0,0,1,21.288,12.144Zm0,3.048a6.1,6.1,0,1,0,6.1,6.1,6.1,6.1,0,0,0-6.1-6.1Z" transform="translate(-3 -3)" fill="#fff"/>
</svg>
