<svg xmlns="http://www.w3.org/2000/svg" width="36.577" height="36.577" viewBox="0 0 36.577 36.577">
  <path id="icons8-facebook" d="M37.252,4H7.325A3.324,3.324,0,0,0,4,7.325V37.252a3.324,3.324,0,0,0,3.325,3.325H23.951V25.614H18.963V20.626h4.988V17.947c0-5.071,2.471-7.3,6.685-7.3a24.4,24.4,0,0,1,3.591.218v4.77H31.353c-1.789,0-2.414.944-2.414,2.856v2.131h5.244l-.712,4.988H28.939V40.577h8.313a3.324,3.324,0,0,0,3.325-3.325V7.325A3.325,3.325,0,0,0,37.252,4Z" transform="translate(-4 -4)" fill="#fff"/>
</svg>
