<svg xmlns="http://www.w3.org/2000/svg" width="52.275" height="52.275" viewBox="0 0 52.275 52.275">
  <path id="icons8-whatsapp" d="M29.137,3A26.095,26.095,0,0,0,6.727,42.534L3.234,55.275l13.013-3.416A26.131,26.131,0,1,0,29.137,3ZM20.191,16.945c.425,0,.861,0,1.238.017.466.011.974.045,1.459,1.119.577,1.276,1.834,4.478,2,4.8a1.168,1.168,0,0,1,.051,1.132A4.746,4.746,0,0,1,24.3,25.1c-.325.375-.68.84-.974,1.123-.325.325-.66.68-.285,1.327a19.366,19.366,0,0,0,3.6,4.48,17.575,17.575,0,0,0,5.207,3.212c.649.325,1.025.274,1.4-.162S34.862,33.2,35.3,32.549s.858-.537,1.446-.323,3.779,1.781,4.429,2.106,1.074.485,1.238.749a5.346,5.346,0,0,1-.37,3.08c-.538,1.509-3.18,2.969-4.365,3.071s-2.312.538-7.772-1.612c-6.587-2.594-10.741-9.34-11.065-9.776S16.2,26.336,16.2,23.156a7.289,7.289,0,0,1,2.259-5.4A2.38,2.38,0,0,1,20.191,16.945Z" transform="translate(-3 -3)" fill="#fff"/>
</svg>
